<svg width="124" height="50" viewBox="0 0 124 50" fill="none" xmlns="http://www.w3.org/2000/svg">
<path d="M21.1238 14.465C23.9831 15.6593 26.2433 17.9982 27.3271 20.9C27.2333 21.0135 27.1354 21.1243 27.0299 21.229C26.1832 22.0701 25.0346 22.5391 23.8371 22.5391C22.944 22.5391 22.071 22.2761 21.3284 21.7833C20.5859 21.2904 20.0071 20.59 19.6654 19.7704C19.3236 18.9509 19.2342 18.0491 19.4084 17.1791C19.5826 16.3091 19.9944 15.5244 20.6259 14.8972C20.7771 14.747 20.9541 14.5915 21.1238 14.465Z" fill="#F4F4F4"/>
<path d="M15.2337 13.6853C14.9607 14.2117 14.7379 14.766 14.5681 15.3341L11.8507 16.1495C11.7489 16.1808 11.6597 16.2435 11.5962 16.3286C11.5327 16.4137 11.4982 16.5166 11.4977 16.6225V19.3913C11.4982 19.4972 11.5425 19.5795 11.6061 19.6645C11.6696 19.7496 11.7595 19.8169 11.8614 19.8482L14.5953 20.6637C14.7983 21.3249 15.063 21.962 15.4056 22.5637L14.0592 25.1243C14.0086 25.2188 13.9902 25.3269 14.0064 25.4327C14.0227 25.5385 14.0728 25.6362 14.1495 25.7114L16.1116 27.6639C16.1873 27.74 16.2857 27.7898 16.3922 27.806C16.4987 27.8222 16.6076 27.8002 16.7027 27.7501L19.2396 26.4081C19.8397 26.7298 20.4727 26.9867 21.1278 27.1746L21.9488 29.9192C21.9802 30.0204 22.0434 30.1089 22.129 30.172C22.2147 30.2351 22.3183 30.2693 22.425 30.2699H25.1999C25.3065 30.2693 25.4101 30.2387 25.4958 30.1756C25.5815 30.1125 25.6446 30.0239 25.6761 29.9228L26.4971 27.1528C26.9688 27.0156 27.4848 26.831 27.9292 26.6237C27.3632 29.9703 25.2468 32.8349 22.3998 34.4726V38.4282C22.3998 39.0323 21.909 39.5204 21.3014 39.5204H12.2391C11.6315 39.5204 11.1407 39.0323 11.1407 38.4282V34.4726C7.77666 32.5374 5.51111 28.9197 5.51111 24.7764C5.51111 19.1137 9.74365 14.4308 15.2337 13.6853Z" fill="#F4F4F4"/>
<path d="M21.1641 41.9937C21.1641 41.8436 21.0405 41.7207 20.8895 41.7207H12.6511C12.5 41.7207 12.3764 41.8436 12.3764 41.9937V43.0859C12.3764 43.6899 12.8673 44.178 13.4749 44.178H20.0657C20.6732 44.178 21.1641 43.6899 21.1641 43.0859V41.9937Z" fill="#F4F4F4"/>
<path d="M33.0592 15.3793L35.8095 16.1947C35.9034 16.2346 35.9829 16.302 36.0372 16.388C36.0916 16.474 36.118 16.5744 36.1132 16.6759V19.4566C36.1127 19.5625 36.0782 19.6655 36.0147 19.7505C35.9513 19.8356 35.862 19.8983 35.7602 19.9296L32.9404 20.7485C32.7481 21.3968 32.4867 22.0229 32.1604 22.616L33.5233 25.144C33.5738 25.2384 33.5923 25.3466 33.576 25.4524C33.5598 25.5581 33.5096 25.6559 33.433 25.7311L31.4709 27.6801C31.3951 27.7561 31.2967 27.8059 31.1902 27.8221C31.0838 27.8383 31.028 27.8164 30.9328 27.7661L28.3795 26.3989C28.1833 26.5189 28.0967 26.5455 27.9292 26.6237C28.032 26.0159 27.987 25.4293 27.987 24.7924C27.987 23.423 27.7801 22.1129 27.3271 20.8999C27.986 20.1016 28.31 19.0954 28.31 18.054C28.31 17.167 28.0452 16.2998 27.5491 15.5622C27.0529 14.8246 26.3477 14.2498 25.5226 13.9103C24.6976 13.5709 23.7896 13.482 22.9138 13.6551C22.2476 13.7868 21.6627 14.0631 21.1238 14.4649C19.7838 13.9051 18.2721 13.598 16.7279 13.598C16.2067 13.598 15.7362 13.6172 15.2337 13.6853C15.2838 13.5887 15.2933 13.5125 15.3467 13.4175L14.0168 10.9676C13.9662 10.8731 13.9477 10.765 13.964 10.6592C13.9802 10.5534 14.0304 10.4557 14.1071 10.3805L16.102 8.44786C16.1777 8.3717 16.2762 8.32539 16.3826 8.30923C16.4891 8.29313 16.6511 8.30793 16.7462 8.35813L19.1561 9.68272C19.7749 9.33971 20.4302 9.06265 21.11 8.86368L21.931 6.17268C21.9625 6.0715 22.0256 5.98293 22.1113 5.91986C22.1969 5.8568 22.3006 5.82252 22.4072 5.82203L25.2352 5.82202C25.3412 5.81967 25.4451 5.85076 25.5322 5.91085C25.6192 5.97093 25.6849 6.05689 25.7196 6.15637L26.5405 8.85553C27.2147 9.0556 27.8645 9.32909 28.478 9.67101L30.929 8.34183C31.0241 8.29163 31.1861 8.27327 31.2926 8.28943C31.3991 8.3056 31.4974 8.35539 31.5732 8.43149L33.531 10.3808C33.6077 10.456 33.6621 10.5616 33.6784 10.6673C33.6947 10.7731 33.6761 10.8813 33.6256 10.9757L32.2792 13.4792C32.6075 14.0828 32.869 14.7198 33.0592 15.3793Z" fill="#F4F4F4"/>
<path d="M39.4721 9.20377V20.8904H37.4458V9.20377H39.4721ZM43.7265 14.0598V20.8904H41.781V12.2057H43.6135L43.7265 14.0598ZM43.3794 16.227L42.7497 16.219C42.7551 15.6036 42.8412 15.039 43.008 14.5253C43.1802 14.0116 43.4171 13.5702 43.7185 13.201C44.0252 12.8318 44.3912 12.5482 44.8164 12.3501C45.2415 12.1469 45.7151 12.0451 46.2372 12.0451C46.657 12.0451 47.0364 12.104 47.3755 12.2218C47.7199 12.3341 48.0133 12.5187 48.2554 12.7755C48.503 13.0324 48.6914 13.3669 48.8205 13.7789C48.9497 14.1856 49.0143 14.6859 49.0143 15.2799V20.8904H47.0606V15.2719C47.0606 14.8545 46.9988 14.5253 46.875 14.2846C46.7565 14.0384 46.5816 13.8645 46.3502 13.7629C46.1242 13.6558 45.8416 13.6023 45.5026 13.6023C45.1689 13.6023 44.8702 13.6719 44.6064 13.811C44.3427 13.9501 44.1194 14.1401 43.9364 14.3809C43.7588 14.6217 43.6216 14.8999 43.5247 15.2156C43.4278 15.5314 43.3794 15.8685 43.3794 16.227ZM52.9297 14.0598V20.8904H50.9841V12.2057H52.8166L52.9297 14.0598ZM52.5825 16.227L51.9528 16.219C51.9582 15.6036 52.0443 15.039 52.2112 14.5253C52.3834 14.0116 52.6202 13.5702 52.9216 13.201C53.2284 12.8318 53.5943 12.5482 54.0195 12.3501C54.4447 12.1469 54.9183 12.0451 55.4403 12.0451C55.8601 12.0451 56.2396 12.104 56.5786 12.2218C56.923 12.3341 57.2164 12.5187 57.4586 12.7755C57.7062 13.0324 57.8945 13.3669 58.0237 13.7789C58.1528 14.1856 58.2174 14.6859 58.2174 15.2799V20.8904H56.2638V15.2719C56.2638 14.8545 56.2019 14.5253 56.0781 14.2846C55.9597 14.0384 55.7848 13.8645 55.5534 13.7629C55.3273 13.6558 55.0448 13.6023 54.7057 13.6023C54.372 13.6023 54.0733 13.6719 53.8096 13.811C53.5459 13.9501 53.3225 14.1401 53.1396 14.3809C52.9619 14.6217 52.8247 14.8999 52.7278 15.2156C52.631 15.5314 52.5825 15.8685 52.5825 16.227ZM59.832 16.6444V16.4597C59.832 15.8337 59.9235 15.2531 60.1064 14.718C60.2895 14.1775 60.5532 13.7093 60.8976 13.3134C61.2475 12.9121 61.6726 12.6016 62.1731 12.3823C62.679 12.1575 63.2495 12.0451 63.8846 12.0451C64.5251 12.0451 65.0955 12.1575 65.5961 12.3823C66.102 12.6016 66.5299 12.9121 66.8797 13.3134C67.2295 13.7093 67.4959 14.1775 67.6789 14.718C67.8619 15.2531 67.9534 15.8337 67.9534 16.4597V16.6444C67.9534 17.2704 67.8619 17.851 67.6789 18.3862C67.4959 18.9212 67.2295 19.3895 66.8797 19.7908C66.5299 20.1868 66.1047 20.4971 65.6041 20.7219C65.1036 20.9412 64.5358 21.051 63.9008 21.051C63.2603 21.051 62.6871 20.9412 62.1812 20.7219C61.6807 20.4971 61.2555 20.1868 60.9057 19.7908C60.5559 19.3895 60.2895 18.9212 60.1064 18.3862C59.9235 17.851 59.832 17.2704 59.832 16.6444ZM61.7776 16.4597V16.6444C61.7776 17.035 61.8179 17.4042 61.8987 17.7521C61.9794 18.0999 62.1059 18.4049 62.2781 18.6671C62.4503 18.9292 62.671 19.1353 62.9401 19.2851C63.2091 19.4349 63.5294 19.5099 63.9008 19.5099C64.2613 19.5099 64.5735 19.4349 64.8372 19.2851C65.1063 19.1353 65.327 18.9292 65.4992 18.6671C65.6714 18.4049 65.7979 18.0999 65.8786 17.7521C65.9647 17.4042 66.0077 17.035 66.0077 16.6444V16.4597C66.0077 16.0745 65.9647 15.7106 65.8786 15.3682C65.7979 15.0203 65.6687 14.7127 65.4911 14.4451C65.3189 14.1775 65.0982 13.9688 64.8291 13.819C64.5654 13.6638 64.2506 13.5862 63.8846 13.5862C63.5187 13.5862 63.2011 13.6638 62.932 13.819C62.6683 13.9688 62.4503 14.1775 62.2781 14.4451C62.1059 14.7127 61.9794 15.0203 61.8987 15.3682C61.8179 15.7106 61.7776 16.0745 61.7776 16.4597ZM72.2968 19.3573L74.4358 12.2057H76.4543L73.419 20.8904H72.159L72.2968 19.3573ZM70.658 12.2057L72.8376 19.3895L72.9423 20.8904H71.683L68.6314 12.2057H70.658ZM82.4524 19.1486V15.007C82.4524 14.6966 82.3959 14.429 82.283 14.2043C82.17 13.9796 81.9978 13.8056 81.7663 13.6826C81.5403 13.5595 81.2551 13.4979 80.9107 13.4979C80.5931 13.4979 80.3182 13.5515 80.0868 13.6585C79.8553 13.7656 79.6755 13.91 79.546 14.0919C79.4172 14.2738 79.3524 14.4799 79.3524 14.71H77.4146C77.4146 14.3675 77.4979 14.0358 77.6653 13.7147C77.832 13.3936 78.0738 13.1073 78.3914 12.8558C78.709 12.6043 79.0886 12.4064 79.5302 12.2619C79.971 12.1174 80.4664 12.0451 81.0154 12.0451C81.6719 12.0451 82.2533 12.1549 82.759 12.3742C83.2701 12.5936 83.6711 12.9254 83.9618 13.3695C84.258 13.8084 84.4061 14.3595 84.4061 15.023V18.8838C84.4061 19.2797 84.433 19.6356 84.4867 19.9513C84.546 20.2616 84.6293 20.5319 84.7368 20.762V20.8904H82.7431C82.6515 20.6817 82.5785 20.4169 82.5248 20.0958C82.4765 19.7694 82.4524 19.4536 82.4524 19.1486ZM82.7349 15.609L82.7507 16.8049H81.3543C80.994 16.8049 80.6765 16.8397 80.4016 16.9092C80.1274 16.9734 79.8987 17.0698 79.7155 17.1982C79.5329 17.3266 79.3951 17.4818 79.3042 17.6638C79.2126 17.8457 79.1664 18.0517 79.1664 18.2818C79.1664 18.5119 79.2202 18.7232 79.3283 18.9159C79.4358 19.1032 79.5915 19.2503 79.7961 19.3573C80.0062 19.4644 80.259 19.5179 80.5552 19.5179C80.9534 19.5179 81.3006 19.4376 81.5968 19.2771C81.8979 19.1112 82.1348 18.9106 82.3071 18.6751C82.4793 18.4343 82.5709 18.2069 82.5812 17.9928L83.2109 18.8516C83.1468 19.0711 83.0359 19.3065 82.8802 19.558C82.7238 19.8095 82.5192 20.0503 82.2664 20.2804C82.0191 20.5051 81.7201 20.6897 81.3709 20.8342C81.0264 20.9787 80.6276 21.051 80.1756 21.051C79.6052 21.051 79.0968 20.9386 78.6498 20.7138C78.2034 20.4837 77.8534 20.176 77.6006 19.7908C77.3478 19.4001 77.221 18.9587 77.221 18.4664C77.221 18.0062 77.3071 17.5995 77.4793 17.2464C77.6571 16.8878 77.9154 16.5882 78.2543 16.3474C78.5988 16.1066 79.0183 15.9247 79.5136 15.8016C80.0089 15.6732 80.5738 15.609 81.209 15.609H82.7349ZM90.4442 12.2057V13.6184H85.52V12.2057H90.4442ZM86.9405 10.0786H88.8867V18.4905C88.8867 18.758 88.9238 18.964 88.9996 19.1085C89.0802 19.2477 89.1904 19.3413 89.3303 19.3895C89.4701 19.4376 89.6348 19.4617 89.8228 19.4617C89.9572 19.4617 90.0867 19.4536 90.2107 19.4376C90.334 19.4216 90.4339 19.4055 90.509 19.3895L90.5172 20.8663C90.3554 20.9145 90.1673 20.9573 89.9524 20.9947C89.7422 21.0322 89.4998 21.051 89.2256 21.051C88.7785 21.051 88.3831 20.9734 88.0386 20.8182C87.6942 20.6577 87.4255 20.3981 87.2312 20.0396C87.0377 19.6811 86.9405 19.2049 86.9405 18.6109V10.0786ZM95.7969 21.051C95.1507 21.051 94.5672 20.9466 94.045 20.7379C93.5284 20.5238 93.0868 20.2269 92.721 19.847C92.3607 19.4671 92.0831 19.0202 91.8895 18.5065C91.6959 17.9928 91.5988 17.439 91.5988 16.8451V16.524C91.5988 15.8444 91.6987 15.229 91.8978 14.6779C92.0969 14.1267 92.3738 13.6558 92.7293 13.2652C93.084 12.8692 93.5043 12.5669 93.9886 12.3582C94.4728 12.1495 94.9978 12.0451 95.5627 12.0451C96.1868 12.0451 96.7331 12.1495 97.2015 12.3582C97.67 12.5669 98.0571 12.8612 98.3637 13.2411C98.6764 13.6157 98.9079 14.0625 99.0581 14.5816C99.2145 15.1006 99.2923 15.6732 99.2923 16.2992V17.126H92.5433V15.7374H97.371V15.5849C97.36 15.2371 97.2904 14.9106 97.1609 14.6056C97.0376 14.3006 96.8461 14.0545 96.5877 13.8672C96.3294 13.6799 95.985 13.5862 95.5544 13.5862C95.232 13.5862 94.944 13.6558 94.6905 13.7949C94.4432 13.9287 94.2359 14.124 94.0692 14.3809C93.9024 14.6377 93.7729 14.9481 93.682 15.312C93.5959 15.6705 93.5525 16.0745 93.5525 16.524V16.8451C93.5525 17.2249 93.6035 17.5782 93.7061 17.9045C93.8136 18.2256 93.97 18.5065 94.1739 18.7473C94.3785 18.9882 94.6265 19.1781 94.9172 19.3172C95.2072 19.451 95.5386 19.5179 95.9099 19.5179C96.3783 19.5179 96.7951 19.4242 97.1609 19.2369C97.5274 19.0497 97.845 18.7848 98.1136 18.4423L99.1387 19.4296C98.9506 19.7025 98.7061 19.9647 98.4043 20.2162C98.1033 20.4623 97.734 20.663 97.2987 20.8182C96.8681 20.9734 96.3673 21.051 95.7969 21.051ZM104.378 19.5099C104.696 19.5099 104.981 19.4483 105.234 19.3252C105.492 19.1968 105.7 19.0202 105.855 18.7955C106.017 18.5708 106.106 18.3112 106.122 18.0169H107.954C107.944 18.5788 107.777 19.0898 107.454 19.55C107.131 20.0101 106.703 20.3767 106.171 20.6496C105.638 20.9172 105.049 21.051 104.402 21.051C103.735 21.051 103.154 20.9386 102.659 20.7138C102.164 20.4837 101.752 20.168 101.424 19.7667C101.095 19.3653 100.848 18.9025 100.681 18.3781C100.519 17.8537 100.439 17.2919 100.439 16.6925V16.4116C100.439 15.8123 100.519 15.2504 100.681 14.726C100.848 14.1963 101.095 13.7308 101.424 13.3294C101.752 12.9281 102.164 12.6151 102.659 12.3903C103.154 12.1602 103.732 12.0451 104.394 12.0451C105.094 12.0451 105.708 12.1843 106.235 12.4625C106.763 12.7355 107.177 13.118 107.478 13.6103C107.785 14.0973 107.944 14.6645 107.954 15.312H106.122C106.106 14.9909 106.026 14.7019 105.88 14.4451C105.74 14.1829 105.541 13.9742 105.282 13.819C105.029 13.6638 104.726 13.5862 104.37 13.5862C103.977 13.5862 103.652 13.6665 103.393 13.8271C103.135 13.9823 102.933 14.1963 102.788 14.4692C102.642 14.7367 102.538 15.039 102.473 15.3762C102.414 15.7079 102.384 16.0531 102.384 16.4116V16.6925C102.384 17.051 102.414 17.3988 102.473 17.736C102.532 18.0731 102.635 18.3754 102.78 18.643C102.93 18.9052 103.135 19.1166 103.393 19.2771C103.652 19.4323 103.98 19.5099 104.378 19.5099ZM111.369 8.56165V20.8904H109.432V8.56165H111.369ZM111.03 16.227L110.401 16.219C110.406 15.6197 110.49 15.0658 110.651 14.5575C110.818 14.0491 111.05 13.6077 111.345 13.2331C111.647 12.8532 112.007 12.5615 112.427 12.3582C112.847 12.1495 113.313 12.0451 113.824 12.0451C114.254 12.0451 114.641 12.104 114.986 12.2218C115.336 12.3395 115.638 12.5295 115.89 12.7916C116.143 13.0485 116.334 13.3856 116.464 13.8029C116.598 14.215 116.665 14.718 116.665 15.312V20.8904H114.712V15.2959C114.712 14.8786 114.65 14.5468 114.526 14.3006C114.408 14.0545 114.233 13.8779 114.001 13.7709C113.77 13.6585 113.488 13.6023 113.153 13.6023C112.803 13.6023 112.494 13.6719 112.226 13.811C111.962 13.9501 111.741 14.1401 111.563 14.3809C111.386 14.6217 111.251 14.8999 111.16 15.2156C111.074 15.5314 111.03 15.8685 111.03 16.227ZM43.4924 37.0586C43.4924 36.8177 43.4548 36.6037 43.3794 36.4164C43.3094 36.2291 43.1829 36.0579 43 35.9027C42.817 35.7475 42.5587 35.5977 42.225 35.4532C41.8966 35.3034 41.4769 35.1509 40.9656 34.9958C40.4059 34.8245 39.8892 34.6345 39.4156 34.4258C38.9474 34.2118 38.5383 33.9656 38.1885 33.6874C37.8387 33.4038 37.5669 33.0801 37.3731 32.7162C37.1794 32.347 37.0825 31.9216 37.0825 31.4399C37.0825 30.9637 37.1821 30.5303 37.3812 30.1397C37.5857 29.749 37.8737 29.4119 38.245 29.1283C38.6217 28.8394 39.0658 28.6173 39.5771 28.4621C40.0883 28.3016 40.6535 28.2213 41.2724 28.2213C42.1442 28.2213 42.895 28.3819 43.5247 28.7029C44.1598 29.024 44.6468 29.4547 44.9859 29.9952C45.3303 30.5356 45.5026 31.1323 45.5026 31.7851H43.4924C43.4924 31.3999 43.409 31.0601 43.2422 30.7658C43.0807 30.4661 42.8331 30.2306 42.4994 30.0594C42.1712 29.8882 41.754 29.8025 41.2481 29.8025C40.7691 29.8025 40.3709 29.8748 40.0534 30.0192C39.7358 30.1638 39.499 30.359 39.3429 30.6052C39.1869 30.8514 39.1088 31.1296 39.1088 31.4399C39.1088 31.6594 39.16 31.86 39.2622 32.0419C39.3645 32.2186 39.5205 32.3844 39.7304 32.5396C39.9403 32.6895 40.204 32.8312 40.5216 32.965C40.8391 33.0988 41.2132 33.2272 41.6437 33.3503C42.295 33.5429 42.8627 33.757 43.3471 33.9924C43.8314 34.2225 44.2351 34.4847 44.558 34.779C44.881 35.0733 45.1231 35.4077 45.2846 35.7823C45.4461 36.1515 45.5268 36.5716 45.5268 37.0425C45.5268 37.5348 45.4272 37.9789 45.2281 38.3749C45.0289 38.7656 44.7437 39.0999 44.3724 39.3782C44.0064 39.6511 43.5651 39.8625 43.0484 40.0123C42.5371 40.1568 41.9666 40.229 41.3369 40.229C40.7718 40.229 40.2148 40.1541 39.6659 40.0042C39.1223 39.8545 38.6272 39.6271 38.1804 39.3221C37.7337 39.0116 37.3786 38.6264 37.1148 38.1662C36.8511 37.7007 36.7192 37.1575 36.7192 36.5369H38.7455C38.7455 36.9167 38.8101 37.2405 38.9393 37.508C39.0738 37.7755 39.2595 37.995 39.4963 38.1662C39.7331 38.3321 40.0076 38.4551 40.3198 38.5354C40.6373 38.6157 40.9763 38.6558 41.3369 38.6558C41.8105 38.6558 42.2062 38.5889 42.5237 38.4551C42.8466 38.3214 43.0888 38.1341 43.2502 37.8933C43.4117 37.6525 43.4924 37.3742 43.4924 37.0586ZM46.7539 35.8225V35.6378C46.7539 35.0118 46.8453 34.4312 47.0284 33.8961C47.2113 33.3556 47.475 32.8874 47.8195 32.4914C48.1693 32.0901 48.5945 31.7797 49.095 31.5603C49.6009 31.3356 50.1714 31.2232 50.8064 31.2232C51.4469 31.2232 52.0174 31.3356 52.5179 31.5603C53.0238 31.7797 53.4517 32.0901 53.8015 32.4914C54.1513 32.8874 54.4177 33.3556 54.6008 33.8961C54.7838 34.4312 54.8752 35.0118 54.8752 35.6378V35.8225C54.8752 36.4485 54.7838 37.0291 54.6008 37.5642C54.4177 38.0993 54.1513 38.5675 53.8015 38.9688C53.4517 39.3649 53.0265 39.6752 52.526 39.8999C52.0255 40.1193 51.4577 40.229 50.8226 40.229C50.1822 40.229 49.609 40.1193 49.1031 39.8999C48.6026 39.6752 48.1774 39.3649 47.8276 38.9688C47.4777 38.5675 47.2113 38.0993 47.0284 37.5642C46.8453 37.0291 46.7539 36.4485 46.7539 35.8225ZM48.6994 35.6378V35.8225C48.6994 36.2131 48.7398 36.5823 48.8205 36.9301C48.9013 37.2779 49.0277 37.5829 49.2 37.8451C49.3722 38.1073 49.5928 38.3134 49.8619 38.4632C50.1311 38.613 50.4513 38.6879 50.8226 38.6879C51.1832 38.6879 51.4953 38.613 51.7591 38.4632C52.0282 38.3134 52.2488 38.1073 52.4211 37.8451C52.5933 37.5829 52.7198 37.2779 52.8005 36.9301C52.8866 36.5823 52.9297 36.2131 52.9297 35.8225V35.6378C52.9297 35.2526 52.8866 34.8887 52.8005 34.5462C52.7198 34.1984 52.5906 33.8908 52.413 33.6232C52.2408 33.3556 52.0201 33.1469 51.751 32.9971C51.4873 32.8419 51.1725 32.7643 50.8064 32.7643C50.4405 32.7643 50.123 32.8419 49.8539 32.9971C49.5901 33.1469 49.3722 33.3556 49.2 33.6232C49.0277 33.8908 48.9013 34.1984 48.8205 34.5462C48.7398 34.8887 48.6994 35.2526 48.6994 35.6378ZM58.5888 27.7397V40.0685H56.6351V27.7397H58.5888ZM65.9755 38.0217V31.3838H67.9291V40.0685H66.0885L65.9755 38.0217ZM66.25 36.2158L66.9039 36.1997C66.9039 36.7829 66.8393 37.3208 66.7101 37.813C66.581 38.3 66.3818 38.7254 66.1127 39.0892C65.8437 39.4478 65.4992 39.7287 65.0794 39.9321C64.6596 40.13 64.1564 40.229 63.5698 40.229C63.1446 40.229 62.7544 40.1675 62.3992 40.0444C62.0439 39.9214 61.7372 39.7314 61.4789 39.4745C61.2259 39.2177 61.0295 38.8832 60.8896 38.4712C60.7496 38.0592 60.6797 37.5669 60.6797 36.9943V31.3838H62.6252V37.0104C62.6252 37.3261 62.6629 37.591 62.7383 37.805C62.8136 38.0137 62.9159 38.1823 63.045 38.3107C63.1742 38.4391 63.3249 38.5301 63.4971 38.5836C63.6693 38.6371 63.8523 38.6638 64.0461 38.6638C64.6004 38.6638 65.0363 38.5569 65.3539 38.3428C65.6768 38.1234 65.9055 37.8291 66.0401 37.4599C66.18 37.0906 66.25 36.676 66.25 36.2158ZM73.9274 31.3838V32.7964H69.0026V31.3838H73.9274ZM70.4237 29.2567H72.3692V37.6686C72.3692 37.9361 72.407 38.1421 72.4821 38.2866C72.5627 38.4258 72.6736 38.5194 72.8135 38.5675C72.9533 38.6157 73.1173 38.6398 73.3054 38.6398C73.4404 38.6398 73.5692 38.6317 73.6932 38.6157C73.8172 38.5997 73.9164 38.5836 73.9922 38.5675L73.9998 40.0444C73.8386 40.0926 73.6498 40.1354 73.4349 40.1728C73.2248 40.2103 72.983 40.229 72.7081 40.229C72.2617 40.229 71.8663 40.1514 71.5218 39.9962C71.1774 39.8358 70.908 39.5762 70.7144 39.2177C70.5209 38.8592 70.4237 38.3829 70.4237 37.789V29.2567ZM77.5117 31.3838V40.0685H75.558V31.3838H77.5117ZM75.4292 29.1042C75.4292 28.8099 75.5256 28.5664 75.7192 28.3738C75.9183 28.1758 76.1932 28.0769 76.5431 28.0769C76.8876 28.0769 77.159 28.1758 77.3581 28.3738C77.5572 28.5664 77.6571 28.8099 77.6571 29.1042C77.6571 29.3932 77.5572 29.634 77.3581 29.8266C77.159 30.0192 76.8876 30.1156 76.5431 30.1156C76.1932 30.1156 75.9183 30.0192 75.7192 29.8266C75.5256 29.634 75.4292 29.3932 75.4292 29.1042ZM79.2718 35.8225V35.6378C79.2718 35.0118 79.3628 34.4312 79.546 33.8961C79.7292 33.3556 79.9931 32.8874 80.3375 32.4914C80.6868 32.0901 81.1125 31.7797 81.6127 31.5603C82.1183 31.3356 82.6894 31.2232 83.3239 31.2232C83.9645 31.2232 84.5349 31.3356 85.0358 31.5603C85.5414 31.7797 85.9692 32.0901 86.3192 32.4914C86.6691 32.8874 86.9357 33.3556 87.1183 33.8961C87.3015 34.4312 87.3931 35.0118 87.3931 35.6378V35.8225C87.3931 36.4485 87.3015 37.0291 87.1183 37.5642C86.9357 38.0993 86.6691 38.5675 86.3192 38.9688C85.9692 39.3649 85.5442 39.6752 85.044 39.8999C84.5432 40.1193 83.9756 40.229 83.3404 40.229C82.6997 40.229 82.1266 40.1193 81.6209 39.8999C81.1201 39.6752 80.6951 39.3649 80.3451 38.9688C79.9952 38.5675 79.7292 38.0993 79.546 37.5642C79.3628 37.0291 79.2718 36.4485 79.2718 35.8225ZM81.2172 35.6378V35.8225C81.2172 36.2131 81.2572 36.5823 81.3385 36.9301C81.4191 37.2779 81.5452 37.5829 81.7174 37.8451C81.8896 38.1073 82.1107 38.3134 82.3794 38.4632C82.6488 38.613 82.9691 38.6879 83.3404 38.6879C83.7007 38.6879 84.0128 38.613 84.2766 38.4632C84.546 38.3134 84.7664 38.1073 84.9386 37.8451C85.1108 37.5829 85.2376 37.2779 85.3182 36.9301C85.4043 36.5823 85.447 36.2131 85.447 35.8225V35.6378C85.447 35.2526 85.4043 34.8887 85.3182 34.5462C85.2376 34.1984 85.1081 33.8908 84.9304 33.6232C84.7581 33.3556 84.5377 33.1469 84.269 32.9971C84.0052 32.8419 83.6904 32.7643 83.3239 32.7643C82.9581 32.7643 82.6405 32.8419 82.3718 32.9971C82.108 33.1469 81.8896 33.3556 81.7174 33.6232C81.5452 33.8908 81.4191 34.1984 81.3385 34.5462C81.2572 34.8887 81.2172 35.2526 81.2172 35.6378ZM90.9533 33.2379V40.0685H89.0072V31.3838H90.8403L90.9533 33.2379ZM90.6061 35.4051L89.9765 35.3971C89.982 34.7816 90.0681 34.2171 90.2348 33.7034C90.407 33.1897 90.6433 32.7483 90.945 32.379C91.2516 32.0099 91.6181 31.7262 92.0431 31.5282C92.4682 31.3249 92.9414 31.2232 93.4636 31.2232C93.8838 31.2232 94.2627 31.2821 94.6024 31.3999C94.9468 31.5122 95.2396 31.6968 95.4821 31.9536C95.7294 32.2105 95.9181 32.5449 96.047 32.957C96.1765 33.3636 96.2405 33.864 96.2405 34.4579V40.0685H94.2875V34.4499C94.2875 34.0325 94.2255 33.7034 94.1015 33.4627C93.983 33.2165 93.8081 33.0426 93.5766 32.941C93.3506 32.8339 93.0682 32.7804 92.7293 32.7804C92.3952 32.7804 92.0969 32.8499 91.833 32.9891C91.5692 33.1282 91.346 33.3182 91.1627 33.559C90.9857 33.7998 90.8479 34.078 90.7515 34.3937C90.6543 34.7095 90.6061 35.0466 90.6061 35.4051ZM103.127 37.7167C103.127 37.5241 103.078 37.3501 102.982 37.195C102.885 37.0345 102.699 36.89 102.425 36.7616C102.155 36.6332 101.757 36.5154 101.23 36.4084C100.767 36.3067 100.342 36.1863 99.9543 36.0472C99.572 35.9027 99.2441 35.7288 98.9692 35.5255C98.695 35.3221 98.4822 35.0814 98.332 34.8031C98.1811 34.5248 98.1054 34.2038 98.1054 33.8399C98.1054 33.4867 98.1839 33.1523 98.3396 32.8366C98.496 32.5209 98.7192 32.2426 99.0099 32.0019C99.3006 31.761 99.6533 31.5711 100.067 31.4319C100.488 31.2928 100.955 31.2232 101.472 31.2232C102.204 31.2232 102.831 31.3463 103.353 31.5925C103.88 31.8333 104.284 32.1623 104.564 32.5797C104.844 32.9918 104.984 33.4573 104.984 33.9764H103.038C103.038 33.7462 102.979 33.5322 102.861 33.3342C102.748 33.1309 102.576 32.9677 102.344 32.8446C102.113 32.7162 101.822 32.652 101.472 32.652C101.139 32.652 100.861 32.7055 100.64 32.8125C100.426 32.9142 100.264 33.0479 100.156 33.2138C100.054 33.3797 100.003 33.5616 100.003 33.7597C100.003 33.9041 100.029 34.0352 100.084 34.1529C100.143 34.2653 100.24 34.3697 100.374 34.466C100.509 34.5569 100.691 34.6425 100.923 34.7228C101.16 34.8031 101.456 34.8807 101.811 34.9556C102.478 35.0947 103.052 35.274 103.53 35.4934C104.015 35.7074 104.387 35.9857 104.645 36.3282C104.903 36.6652 105.032 37.0933 105.032 37.6124C105.032 37.9977 104.949 38.3508 104.782 38.6719C104.621 38.9876 104.384 39.2632 104.072 39.4986C103.76 39.7287 103.386 39.9079 102.95 40.0364C102.519 40.1648 102.035 40.229 101.496 40.229C100.705 40.229 100.035 40.0899 99.4859 39.8116C98.9375 39.528 98.5201 39.1669 98.2349 38.7281C97.9552 38.2839 97.8153 37.8238 97.8153 37.3475H99.696C99.7174 37.706 99.8172 37.9923 99.995 38.2063C100.178 38.415 100.403 38.5675 100.673 38.6638C100.947 38.7548 101.23 38.8003 101.521 38.8003C101.87 38.8003 102.164 38.7548 102.401 38.6638C102.638 38.5675 102.817 38.4391 102.941 38.2786C103.065 38.1127 103.127 37.9254 103.127 37.7167Z" fill="#F4F4F4"/>
</svg>
